<mxfile host="app.diagrams.net" modified="2023-12-31T03:54:26.369Z" agent="Mozilla/5.0 (X11; Linux x86_64) AppleWebKit/537.36 (KHTML, like Gecko) Chrome/120.0.0.0 Safari/537.36" etag="X1wga51OxY-9twZgy3GW" version="22.1.16" type="github" pages="3">
  <diagram id="HzzkXtRiBOfBRwnQmHLX" name="Server Arch">
    <mxGraphModel dx="1434" dy="766" grid="1" gridSize="10" guides="1" tooltips="1" connect="1" arrows="1" fold="1" page="1" pageScale="1" pageWidth="850" pageHeight="1100" math="0" shadow="0">
      <root>
        <mxCell id="0" />
        <mxCell id="1" parent="0" />
        <mxCell id="msXrQutdEgU7XMJ9eGrg-1" value="" style="shape=image;html=1;verticalAlign=top;verticalLabelPosition=bottom;labelBackgroundColor=#ffffff;imageAspect=0;aspect=fixed;image=https://cdn1.iconfinder.com/data/icons/seo-and-web-development-6/32/Web_website_favorite_site_star-128.png" parent="1" vertex="1">
          <mxGeometry x="135" y="37" width="110" height="110" as="geometry" />
        </mxCell>
        <mxCell id="msXrQutdEgU7XMJ9eGrg-2" value="" style="shape=image;html=1;verticalAlign=top;verticalLabelPosition=bottom;labelBackgroundColor=#ffffff;imageAspect=0;aspect=fixed;image=https://cdn1.iconfinder.com/data/icons/seo-and-web-development-6/32/Web_website_favorite_site_star-128.png" parent="1" vertex="1">
          <mxGeometry x="16" y="36" width="110" height="110" as="geometry" />
        </mxCell>
        <mxCell id="msXrQutdEgU7XMJ9eGrg-3" value="Shopping Cart App" style="text;html=1;align=center;verticalAlign=middle;resizable=0;points=[];autosize=1;strokeColor=none;fillColor=none;" parent="1" vertex="1">
          <mxGeometry x="127" y="131" width="120" height="30" as="geometry" />
        </mxCell>
        <mxCell id="msXrQutdEgU7XMJ9eGrg-4" value="Product Listing App" style="text;html=1;align=center;verticalAlign=middle;resizable=0;points=[];autosize=1;strokeColor=none;fillColor=none;" parent="1" vertex="1">
          <mxGeometry x="4" y="130" width="130" height="30" as="geometry" />
        </mxCell>
        <mxCell id="msXrQutdEgU7XMJ9eGrg-10" value="Monolithic Single Page Application" style="text;html=1;align=center;verticalAlign=middle;resizable=0;points=[];autosize=1;strokeColor=none;fillColor=none;" parent="1" vertex="1">
          <mxGeometry x="319" y="169" width="210" height="30" as="geometry" />
        </mxCell>
        <mxCell id="msXrQutdEgU7XMJ9eGrg-19" value="" style="rounded=1;whiteSpace=wrap;html=1;dashed=1;" parent="1" vertex="1">
          <mxGeometry x="722" y="30" width="121" height="153" as="geometry" />
        </mxCell>
        <mxCell id="msXrQutdEgU7XMJ9eGrg-14" value="" style="shape=image;html=1;verticalAlign=top;verticalLabelPosition=bottom;labelBackgroundColor=#ffffff;imageAspect=0;aspect=fixed;image=https://cdn1.iconfinder.com/data/icons/seo-and-web-development-6/32/Web_website_favorite_site_star-128.png" parent="1" vertex="1">
          <mxGeometry x="726" y="37" width="110" height="110" as="geometry" />
        </mxCell>
        <mxCell id="msXrQutdEgU7XMJ9eGrg-18" value="" style="rounded=1;whiteSpace=wrap;html=1;dashed=1;" parent="1" vertex="1">
          <mxGeometry x="592" y="30" width="121" height="153" as="geometry" />
        </mxCell>
        <mxCell id="msXrQutdEgU7XMJ9eGrg-15" value="" style="shape=image;html=1;verticalAlign=top;verticalLabelPosition=bottom;labelBackgroundColor=#ffffff;imageAspect=0;aspect=fixed;image=https://cdn1.iconfinder.com/data/icons/seo-and-web-development-6/32/Web_website_favorite_site_star-128.png" parent="1" vertex="1">
          <mxGeometry x="597" y="37" width="110" height="110" as="geometry" />
        </mxCell>
        <mxCell id="msXrQutdEgU7XMJ9eGrg-16" value="Shopping Cart App" style="text;html=1;align=center;verticalAlign=middle;resizable=0;points=[];autosize=1;strokeColor=none;fillColor=none;" parent="1" vertex="1">
          <mxGeometry x="719" y="131" width="120" height="30" as="geometry" />
        </mxCell>
        <mxCell id="msXrQutdEgU7XMJ9eGrg-17" value="Product Listing App" style="text;html=1;align=center;verticalAlign=middle;resizable=0;points=[];autosize=1;strokeColor=none;fillColor=none;" parent="1" vertex="1">
          <mxGeometry x="587" y="131" width="130" height="30" as="geometry" />
        </mxCell>
        <mxCell id="msXrQutdEgU7XMJ9eGrg-20" value="Major Feature#1" style="text;html=1;align=center;verticalAlign=middle;resizable=0;points=[];autosize=1;strokeColor=none;fillColor=none;" parent="1" vertex="1">
          <mxGeometry x="597" y="6" width="110" height="30" as="geometry" />
        </mxCell>
        <mxCell id="msXrQutdEgU7XMJ9eGrg-21" value="Major Feature#1" style="text;html=1;align=center;verticalAlign=middle;resizable=0;points=[];autosize=1;strokeColor=none;fillColor=none;" parent="1" vertex="1">
          <mxGeometry x="719" y="6" width="110" height="30" as="geometry" />
        </mxCell>
        <mxCell id="yO8kdcnrtrjrrBu5rs9_-2" value="" style="group" parent="1" vertex="1" connectable="0">
          <mxGeometry x="290" y="6" width="270" height="170" as="geometry" />
        </mxCell>
        <mxCell id="msXrQutdEgU7XMJ9eGrg-5" value="" style="rounded=0;whiteSpace=wrap;html=1;" parent="yO8kdcnrtrjrrBu5rs9_-2" vertex="1">
          <mxGeometry width="270" height="170" as="geometry" />
        </mxCell>
        <mxCell id="msXrQutdEgU7XMJ9eGrg-8" value="Product Listing" style="rounded=0;whiteSpace=wrap;html=1;" parent="yO8kdcnrtrjrrBu5rs9_-2" vertex="1">
          <mxGeometry x="20" y="81" width="100" height="50" as="geometry" />
        </mxCell>
        <mxCell id="msXrQutdEgU7XMJ9eGrg-9" value="Shopping Cart" style="rounded=0;whiteSpace=wrap;html=1;" parent="yO8kdcnrtrjrrBu5rs9_-2" vertex="1">
          <mxGeometry x="150" y="81" width="100" height="50" as="geometry" />
        </mxCell>
        <mxCell id="msXrQutdEgU7XMJ9eGrg-13" value="" style="group" parent="yO8kdcnrtrjrrBu5rs9_-2" vertex="1" connectable="0">
          <mxGeometry width="270" height="50" as="geometry" />
        </mxCell>
        <mxCell id="msXrQutdEgU7XMJ9eGrg-11" value="" style="rounded=0;whiteSpace=wrap;html=1;fillColor=#dae8fc;strokeColor=#6c8ebf;" parent="msXrQutdEgU7XMJ9eGrg-13" vertex="1">
          <mxGeometry width="270" height="50" as="geometry" />
        </mxCell>
        <mxCell id="msXrQutdEgU7XMJ9eGrg-7" value="React/Vue/Angular&lt;br&gt;Single Page Application" style="text;html=1;strokeColor=none;fillColor=none;align=center;verticalAlign=middle;whiteSpace=wrap;rounded=0;" parent="msXrQutdEgU7XMJ9eGrg-13" vertex="1">
          <mxGeometry x="50" y="10" width="150" height="30" as="geometry" />
        </mxCell>
        <mxCell id="yO8kdcnrtrjrrBu5rs9_-10" value="" style="group" parent="1" vertex="1" connectable="0">
          <mxGeometry x="10" y="210" width="170" height="140" as="geometry" />
        </mxCell>
        <mxCell id="yO8kdcnrtrjrrBu5rs9_-4" value="" style="rounded=0;whiteSpace=wrap;html=1;" parent="yO8kdcnrtrjrrBu5rs9_-10" vertex="1">
          <mxGeometry width="170" height="140" as="geometry" />
        </mxCell>
        <mxCell id="yO8kdcnrtrjrrBu5rs9_-5" value="Product Listing" style="rounded=0;whiteSpace=wrap;html=1;" parent="yO8kdcnrtrjrrBu5rs9_-10" vertex="1">
          <mxGeometry x="20" y="68" width="130" height="50" as="geometry" />
        </mxCell>
        <mxCell id="yO8kdcnrtrjrrBu5rs9_-7" value="" style="group" parent="yO8kdcnrtrjrrBu5rs9_-10" vertex="1" connectable="0">
          <mxGeometry width="170" height="50" as="geometry" />
        </mxCell>
        <mxCell id="yO8kdcnrtrjrrBu5rs9_-8" value="" style="rounded=0;whiteSpace=wrap;html=1;fillColor=#dae8fc;strokeColor=#6c8ebf;" parent="yO8kdcnrtrjrrBu5rs9_-7" vertex="1">
          <mxGeometry width="170" height="50" as="geometry" />
        </mxCell>
        <mxCell id="yO8kdcnrtrjrrBu5rs9_-9" value="React/Vue/Angular&lt;br&gt;Single Page Application" style="text;html=1;strokeColor=none;fillColor=none;align=center;verticalAlign=middle;whiteSpace=wrap;rounded=0;" parent="yO8kdcnrtrjrrBu5rs9_-7" vertex="1">
          <mxGeometry x="10" y="10" width="150" height="30" as="geometry" />
        </mxCell>
        <mxCell id="yO8kdcnrtrjrrBu5rs9_-11" value="" style="group" parent="1" vertex="1" connectable="0">
          <mxGeometry x="200" y="210" width="170" height="140" as="geometry" />
        </mxCell>
        <mxCell id="yO8kdcnrtrjrrBu5rs9_-12" value="" style="rounded=0;whiteSpace=wrap;html=1;" parent="yO8kdcnrtrjrrBu5rs9_-11" vertex="1">
          <mxGeometry width="170" height="140" as="geometry" />
        </mxCell>
        <mxCell id="yO8kdcnrtrjrrBu5rs9_-13" value="Shopping Cart" style="rounded=0;whiteSpace=wrap;html=1;" parent="yO8kdcnrtrjrrBu5rs9_-11" vertex="1">
          <mxGeometry x="20" y="68" width="130" height="50" as="geometry" />
        </mxCell>
        <mxCell id="yO8kdcnrtrjrrBu5rs9_-14" value="" style="group" parent="yO8kdcnrtrjrrBu5rs9_-11" vertex="1" connectable="0">
          <mxGeometry width="170" height="50" as="geometry" />
        </mxCell>
        <mxCell id="yO8kdcnrtrjrrBu5rs9_-15" value="" style="rounded=0;whiteSpace=wrap;html=1;fillColor=#dae8fc;strokeColor=#6c8ebf;" parent="yO8kdcnrtrjrrBu5rs9_-14" vertex="1">
          <mxGeometry width="170" height="50" as="geometry" />
        </mxCell>
        <mxCell id="yO8kdcnrtrjrrBu5rs9_-16" value="React/Vue/Angular&lt;br&gt;Single Page Application" style="text;html=1;strokeColor=none;fillColor=none;align=center;verticalAlign=middle;whiteSpace=wrap;rounded=0;" parent="yO8kdcnrtrjrrBu5rs9_-14" vertex="1">
          <mxGeometry x="10" y="10" width="150" height="30" as="geometry" />
        </mxCell>
        <mxCell id="yO8kdcnrtrjrrBu5rs9_-18" value="" style="rounded=0;whiteSpace=wrap;html=1;" parent="1" vertex="1">
          <mxGeometry x="479" y="210" width="111" height="120" as="geometry" />
        </mxCell>
        <mxCell id="yO8kdcnrtrjrrBu5rs9_-19" value="Product Listing" style="rounded=0;whiteSpace=wrap;html=1;" parent="1" vertex="1">
          <mxGeometry x="489" y="270" width="91" height="50" as="geometry" />
        </mxCell>
        <mxCell id="yO8kdcnrtrjrrBu5rs9_-20" value="" style="group" parent="1" vertex="1" connectable="0">
          <mxGeometry x="479" y="210" width="211" height="120" as="geometry" />
        </mxCell>
        <mxCell id="yO8kdcnrtrjrrBu5rs9_-21" value="" style="rounded=0;whiteSpace=wrap;html=1;fillColor=#dae8fc;strokeColor=#6c8ebf;" parent="yO8kdcnrtrjrrBu5rs9_-20" vertex="1">
          <mxGeometry width="111.00000000000001" height="50" as="geometry" />
        </mxCell>
        <mxCell id="yO8kdcnrtrjrrBu5rs9_-22" value="SPA" style="text;html=1;strokeColor=none;fillColor=none;align=center;verticalAlign=middle;whiteSpace=wrap;rounded=0;" parent="yO8kdcnrtrjrrBu5rs9_-20" vertex="1">
          <mxGeometry x="6.529411764705883" y="10" width="97.94117647058825" height="30" as="geometry" />
        </mxCell>
        <mxCell id="yO8kdcnrtrjrrBu5rs9_-35" value="" style="verticalLabelPosition=bottom;verticalAlign=top;html=1;shape=mxgraph.basic.x;fillColor=#CC0000;" parent="yO8kdcnrtrjrrBu5rs9_-20" vertex="1">
          <mxGeometry x="136" y="50" width="29" height="30" as="geometry" />
        </mxCell>
        <mxCell id="yO8kdcnrtrjrrBu5rs9_-29" value="" style="rounded=0;whiteSpace=wrap;html=1;" parent="1" vertex="1">
          <mxGeometry x="669" y="208" width="111" height="120" as="geometry" />
        </mxCell>
        <mxCell id="yO8kdcnrtrjrrBu5rs9_-30" value="Shopping Cart" style="rounded=0;whiteSpace=wrap;html=1;" parent="1" vertex="1">
          <mxGeometry x="679" y="268" width="91" height="50" as="geometry" />
        </mxCell>
        <mxCell id="yO8kdcnrtrjrrBu5rs9_-31" value="" style="group" parent="1" vertex="1" connectable="0">
          <mxGeometry x="669" y="208" width="111" height="50" as="geometry" />
        </mxCell>
        <mxCell id="yO8kdcnrtrjrrBu5rs9_-32" value="" style="rounded=0;whiteSpace=wrap;html=1;fillColor=#dae8fc;strokeColor=#6c8ebf;" parent="yO8kdcnrtrjrrBu5rs9_-31" vertex="1">
          <mxGeometry width="111.00000000000001" height="50" as="geometry" />
        </mxCell>
        <mxCell id="yO8kdcnrtrjrrBu5rs9_-33" value="SPA" style="text;html=1;strokeColor=none;fillColor=none;align=center;verticalAlign=middle;whiteSpace=wrap;rounded=0;" parent="yO8kdcnrtrjrrBu5rs9_-31" vertex="1">
          <mxGeometry x="6.529411764705883" y="10" width="97.94117647058825" height="30" as="geometry" />
        </mxCell>
        <mxCell id="yO8kdcnrtrjrrBu5rs9_-34" value="" style="endArrow=classic;html=1;rounded=0;entryX=-0.019;entryY=0.562;entryDx=0;entryDy=0;entryPerimeter=0;endFill=1;startArrow=classic;startFill=1;" parent="1" target="yO8kdcnrtrjrrBu5rs9_-29" edge="1">
          <mxGeometry width="50" height="50" relative="1" as="geometry">
            <mxPoint x="590" y="275" as="sourcePoint" />
            <mxPoint x="420" y="210" as="targetPoint" />
          </mxGeometry>
        </mxCell>
        <mxCell id="yO8kdcnrtrjrrBu5rs9_-36" value="" style="rounded=0;whiteSpace=wrap;html=1;" parent="1" vertex="1">
          <mxGeometry x="30" y="422" width="111" height="120" as="geometry" />
        </mxCell>
        <mxCell id="yO8kdcnrtrjrrBu5rs9_-37" value="Product Listing" style="rounded=0;whiteSpace=wrap;html=1;" parent="1" vertex="1">
          <mxGeometry x="40" y="482" width="91" height="50" as="geometry" />
        </mxCell>
        <mxCell id="yO8kdcnrtrjrrBu5rs9_-38" value="" style="group" parent="1" vertex="1" connectable="0">
          <mxGeometry x="30" y="422" width="211" height="141" as="geometry" />
        </mxCell>
        <mxCell id="yO8kdcnrtrjrrBu5rs9_-39" value="" style="rounded=0;whiteSpace=wrap;html=1;fillColor=#dae8fc;strokeColor=#6c8ebf;" parent="yO8kdcnrtrjrrBu5rs9_-38" vertex="1">
          <mxGeometry width="111.00000000000001" height="50" as="geometry" />
        </mxCell>
        <mxCell id="yO8kdcnrtrjrrBu5rs9_-40" value="SPA" style="text;html=1;strokeColor=none;fillColor=none;align=center;verticalAlign=middle;whiteSpace=wrap;rounded=0;" parent="yO8kdcnrtrjrrBu5rs9_-38" vertex="1">
          <mxGeometry x="6.529411764705883" y="10" width="97.94117647058825" height="30" as="geometry" />
        </mxCell>
        <mxCell id="yO8kdcnrtrjrrBu5rs9_-58" value="" style="rounded=1;whiteSpace=wrap;html=1;strokeColor=default;align=center;verticalAlign=top;fontFamily=Helvetica;fontSize=12;fontColor=default;fillColor=default;fillOpacity=0;dashed=1;" parent="yO8kdcnrtrjrrBu5rs9_-38" vertex="1">
          <mxGeometry x="-14.5" y="-17" width="140" height="145" as="geometry" />
        </mxCell>
        <mxCell id="yO8kdcnrtrjrrBu5rs9_-42" value="" style="rounded=0;whiteSpace=wrap;html=1;" parent="1" vertex="1">
          <mxGeometry x="220" y="420" width="111" height="120" as="geometry" />
        </mxCell>
        <mxCell id="yO8kdcnrtrjrrBu5rs9_-43" value="Shopping Cart" style="rounded=0;whiteSpace=wrap;html=1;" parent="1" vertex="1">
          <mxGeometry x="230" y="480" width="91" height="50" as="geometry" />
        </mxCell>
        <mxCell id="yO8kdcnrtrjrrBu5rs9_-44" value="" style="group" parent="1" vertex="1" connectable="0">
          <mxGeometry x="220" y="420" width="111" height="50" as="geometry" />
        </mxCell>
        <mxCell id="yO8kdcnrtrjrrBu5rs9_-45" value="" style="rounded=0;whiteSpace=wrap;html=1;fillColor=#dae8fc;strokeColor=#6c8ebf;" parent="yO8kdcnrtrjrrBu5rs9_-44" vertex="1">
          <mxGeometry width="111.00000000000001" height="50" as="geometry" />
        </mxCell>
        <mxCell id="yO8kdcnrtrjrrBu5rs9_-46" value="SPA" style="text;html=1;strokeColor=none;fillColor=none;align=center;verticalAlign=middle;whiteSpace=wrap;rounded=0;" parent="yO8kdcnrtrjrrBu5rs9_-44" vertex="1">
          <mxGeometry x="6.529411764705883" y="10" width="97.94117647058825" height="30" as="geometry" />
        </mxCell>
        <mxCell id="yO8kdcnrtrjrrBu5rs9_-48" value="API for Retreiving Products" style="rounded=0;whiteSpace=wrap;html=1;strokeColor=default;align=center;verticalAlign=top;fontFamily=Helvetica;fontSize=12;fontColor=default;fillColor=default;" parent="1" vertex="1">
          <mxGeometry x="60" y="590" width="129" height="40" as="geometry" />
        </mxCell>
        <mxCell id="yO8kdcnrtrjrrBu5rs9_-49" value="API for Managing Shopping Cart" style="rounded=0;whiteSpace=wrap;html=1;strokeColor=default;align=center;verticalAlign=top;fontFamily=Helvetica;fontSize=12;fontColor=default;fillColor=default;" parent="1" vertex="1">
          <mxGeometry x="220" y="590" width="129" height="40" as="geometry" />
        </mxCell>
        <mxCell id="yO8kdcnrtrjrrBu5rs9_-50" value="" style="endArrow=classic;html=1;rounded=0;fontFamily=Helvetica;fontSize=12;fontColor=default;entryX=0.537;entryY=0.006;entryDx=0;entryDy=0;entryPerimeter=0;" parent="1" target="yO8kdcnrtrjrrBu5rs9_-48" edge="1">
          <mxGeometry width="50" height="50" relative="1" as="geometry">
            <mxPoint x="80" y="540" as="sourcePoint" />
            <mxPoint x="350" y="580" as="targetPoint" />
            <Array as="points">
              <mxPoint x="80" y="570" />
              <mxPoint x="130" y="570" />
            </Array>
          </mxGeometry>
        </mxCell>
        <mxCell id="yO8kdcnrtrjrrBu5rs9_-51" value="" style="endArrow=classic;html=1;rounded=0;fontFamily=Helvetica;fontSize=12;fontColor=default;exitX=0.5;exitY=1;exitDx=0;exitDy=0;entryX=0.427;entryY=-0.006;entryDx=0;entryDy=0;entryPerimeter=0;" parent="1" source="yO8kdcnrtrjrrBu5rs9_-42" target="yO8kdcnrtrjrrBu5rs9_-49" edge="1">
          <mxGeometry width="50" height="50" relative="1" as="geometry">
            <mxPoint x="300" y="630" as="sourcePoint" />
            <mxPoint x="350" y="580" as="targetPoint" />
          </mxGeometry>
        </mxCell>
        <mxCell id="yO8kdcnrtrjrrBu5rs9_-52" value="" style="endArrow=classic;html=1;rounded=0;fontFamily=Helvetica;fontSize=12;fontColor=default;entryX=0.294;entryY=0.006;entryDx=0;entryDy=0;entryPerimeter=0;" parent="1" target="yO8kdcnrtrjrrBu5rs9_-49" edge="1">
          <mxGeometry width="50" height="50" relative="1" as="geometry">
            <mxPoint x="120" y="570" as="sourcePoint" />
            <mxPoint x="350" y="580" as="targetPoint" />
            <Array as="points">
              <mxPoint x="258" y="570" />
            </Array>
          </mxGeometry>
        </mxCell>
        <mxCell id="yO8kdcnrtrjrrBu5rs9_-59" value="" style="rounded=1;whiteSpace=wrap;html=1;strokeColor=default;align=center;verticalAlign=top;fontFamily=Helvetica;fontSize=12;fontColor=default;fillColor=default;fillOpacity=0;dashed=1;" parent="1" vertex="1">
          <mxGeometry x="203.5" y="405" width="140" height="145" as="geometry" />
        </mxCell>
        <mxCell id="yO8kdcnrtrjrrBu5rs9_-60" value="Engineering Team #1" style="text;html=1;align=center;verticalAlign=middle;resizable=0;points=[];autosize=1;strokeColor=none;fillColor=none;fontSize=12;fontFamily=Helvetica;fontColor=default;" parent="1" vertex="1">
          <mxGeometry x="16" y="375" width="140" height="30" as="geometry" />
        </mxCell>
        <mxCell id="yO8kdcnrtrjrrBu5rs9_-61" value="Engineering Team #2" style="text;html=1;align=center;verticalAlign=middle;resizable=0;points=[];autosize=1;strokeColor=none;fillColor=none;fontSize=12;fontFamily=Helvetica;fontColor=default;" parent="1" vertex="1">
          <mxGeometry x="200" y="375" width="140" height="30" as="geometry" />
        </mxCell>
        <mxCell id="yO8kdcnrtrjrrBu5rs9_-62" value="Major Categories of&lt;br&gt;&amp;nbsp;Integration" style="rounded=0;whiteSpace=wrap;html=1;strokeColor=#b46504;align=center;verticalAlign=top;fontFamily=Helvetica;fontSize=12;fillColor=#fad7ac;" parent="1" vertex="1">
          <mxGeometry x="370" y="640" width="130" height="40" as="geometry" />
        </mxCell>
        <mxCell id="yO8kdcnrtrjrrBu5rs9_-63" value="Build Time Integration&lt;br&gt;Compile-time Integration" style="rounded=0;whiteSpace=wrap;html=1;strokeColor=#6c8ebf;align=center;verticalAlign=top;fontFamily=Helvetica;fontSize=12;fillColor=#dae8fc;" parent="1" vertex="1">
          <mxGeometry x="10" y="727" width="200" height="63" as="geometry" />
        </mxCell>
        <mxCell id="yO8kdcnrtrjrrBu5rs9_-64" value="Run Time Integration&lt;br&gt;Client-side Integration" style="rounded=0;whiteSpace=wrap;html=1;strokeColor=#6c8ebf;align=center;verticalAlign=top;fontFamily=Helvetica;fontSize=12;fillColor=#dae8fc;" parent="1" vertex="1">
          <mxGeometry x="300" y="727" width="200" height="63" as="geometry" />
        </mxCell>
        <mxCell id="yO8kdcnrtrjrrBu5rs9_-65" value="&lt;br&gt;Server Integration" style="rounded=0;whiteSpace=wrap;html=1;strokeColor=#6c8ebf;align=center;verticalAlign=top;fontFamily=Helvetica;fontSize=12;fillColor=#dae8fc;" parent="1" vertex="1">
          <mxGeometry x="580" y="727" width="240" height="60" as="geometry" />
        </mxCell>
        <mxCell id="yO8kdcnrtrjrrBu5rs9_-66" value="Before Container gets loaded in the browser, it gets access to Products List source code" style="rounded=0;whiteSpace=wrap;html=1;strokeColor=#666666;align=center;verticalAlign=top;fontFamily=Helvetica;fontSize=12;fontColor=#333333;fillColor=#f5f5f5;" parent="1" vertex="1">
          <mxGeometry x="10" y="816" width="200" height="124" as="geometry" />
        </mxCell>
        <mxCell id="yO8kdcnrtrjrrBu5rs9_-67" value="After Container gets loaded in the browser, it gets access to Products List source code" style="rounded=0;whiteSpace=wrap;html=1;strokeColor=#666666;align=center;verticalAlign=top;fontFamily=Helvetica;fontSize=12;fontColor=#333333;fillColor=#f5f5f5;" parent="1" vertex="1">
          <mxGeometry x="301" y="816" width="199" height="124" as="geometry" />
        </mxCell>
        <mxCell id="yO8kdcnrtrjrrBu5rs9_-68" value="&lt;div style=&quot;text-align: justify;&quot;&gt;&lt;span style=&quot;background-color: initial;&quot;&gt;When a client requests to specific URL, there will be a service or backend that sits between browser and the actual applications, which is responsible for combining and rendering multiple fragments, or micro-frontends into a complete HTML page before returning it to the client&lt;/span&gt;&lt;/div&gt;" style="rounded=0;whiteSpace=wrap;html=1;strokeColor=#666666;align=center;verticalAlign=top;fontFamily=Helvetica;fontSize=12;fontColor=#333333;fillColor=#f5f5f5;" parent="1" vertex="1">
          <mxGeometry x="580" y="816" width="240" height="124" as="geometry" />
        </mxCell>
        <mxCell id="yO8kdcnrtrjrrBu5rs9_-69" value="" style="endArrow=classic;html=1;rounded=0;fontFamily=Helvetica;fontSize=12;fontColor=default;exitX=0.5;exitY=1;exitDx=0;exitDy=0;entryX=0.679;entryY=-0.053;entryDx=0;entryDy=0;entryPerimeter=0;" parent="1" source="yO8kdcnrtrjrrBu5rs9_-62" target="yO8kdcnrtrjrrBu5rs9_-64" edge="1">
          <mxGeometry width="50" height="50" relative="1" as="geometry">
            <mxPoint x="410" y="970" as="sourcePoint" />
            <mxPoint x="460" y="920" as="targetPoint" />
          </mxGeometry>
        </mxCell>
        <mxCell id="yO8kdcnrtrjrrBu5rs9_-70" value="" style="endArrow=none;html=1;rounded=0;fontFamily=Helvetica;fontSize=12;fontColor=default;" parent="1" edge="1">
          <mxGeometry width="50" height="50" relative="1" as="geometry">
            <mxPoint x="80" y="700" as="sourcePoint" />
            <mxPoint x="720" y="700" as="targetPoint" />
          </mxGeometry>
        </mxCell>
        <mxCell id="yO8kdcnrtrjrrBu5rs9_-71" value="" style="endArrow=classic;html=1;rounded=0;fontFamily=Helvetica;fontSize=12;fontColor=default;entryX=0.346;entryY=-0.053;entryDx=0;entryDy=0;entryPerimeter=0;" parent="1" target="yO8kdcnrtrjrrBu5rs9_-63" edge="1">
          <mxGeometry width="50" height="50" relative="1" as="geometry">
            <mxPoint x="80" y="700" as="sourcePoint" />
            <mxPoint x="460" y="920" as="targetPoint" />
          </mxGeometry>
        </mxCell>
        <mxCell id="yO8kdcnrtrjrrBu5rs9_-73" value="" style="endArrow=classic;html=1;rounded=0;fontFamily=Helvetica;fontSize=12;fontColor=default;entryX=0.585;entryY=-0.03;entryDx=0;entryDy=0;entryPerimeter=0;" parent="1" target="yO8kdcnrtrjrrBu5rs9_-65" edge="1">
          <mxGeometry width="50" height="50" relative="1" as="geometry">
            <mxPoint x="720" y="700" as="sourcePoint" />
            <mxPoint x="460" y="920" as="targetPoint" />
          </mxGeometry>
        </mxCell>
      </root>
    </mxGraphModel>
  </diagram>
  <diagram name="Webpack " id="f_ubU6b-C9NsZ_72Fe37">
    <mxGraphModel dx="1195" dy="638" grid="1" gridSize="10" guides="1" tooltips="1" connect="1" arrows="1" fold="1" page="1" pageScale="1" pageWidth="850" pageHeight="1100" math="0" shadow="0">
      <root>
        <mxCell id="0" />
        <mxCell id="1" parent="0" />
        <mxCell id="33EV09qo5TnwpSvwFXFL-1" value="Note: bundle.js or main.js, sometimes totally unpredictable names" style="text;html=1;align=center;verticalAlign=middle;resizable=0;points=[];autosize=1;strokeColor=none;fillColor=none;fontSize=12;fontFamily=Helvetica;fontColor=default;" parent="1" vertex="1">
          <mxGeometry x="10" y="318" width="370" height="30" as="geometry" />
        </mxCell>
        <mxCell id="33EV09qo5TnwpSvwFXFL-3" value="" style="strokeWidth=1;shadow=0;dashed=0;align=center;html=1;shape=mxgraph.mockup.containers.browserWindow;rSize=0;strokeColor=#666666;strokeColor2=#008cff;strokeColor3=#c4c4c4;mainText=,;recursiveResize=0;verticalAlign=top;fontFamily=Helvetica;fontSize=12;fontColor=default;fillColor=default;" parent="1" vertex="1">
          <mxGeometry x="580" y="10" width="250" height="290" as="geometry" />
        </mxCell>
        <mxCell id="33EV09qo5TnwpSvwFXFL-4" value="Page 1" style="strokeWidth=1;shadow=0;dashed=0;align=center;html=1;shape=mxgraph.mockup.containers.anchor;fontSize=17;fontColor=#666666;align=left;whiteSpace=wrap;strokeColor=default;verticalAlign=top;fontFamily=Helvetica;fillColor=default;" parent="33EV09qo5TnwpSvwFXFL-3" vertex="1">
          <mxGeometry x="60" y="12" width="110" height="26" as="geometry" />
        </mxCell>
        <mxCell id="33EV09qo5TnwpSvwFXFL-5" value="https://www.my-app.io" style="strokeWidth=1;shadow=0;dashed=0;align=center;html=1;shape=mxgraph.mockup.containers.anchor;rSize=0;fontSize=17;fontColor=#666666;align=left;strokeColor=default;verticalAlign=top;fontFamily=Helvetica;fillColor=default;" parent="33EV09qo5TnwpSvwFXFL-3" vertex="1">
          <mxGeometry x="80" y="60" width="120" height="26" as="geometry" />
        </mxCell>
        <mxCell id="33EV09qo5TnwpSvwFXFL-6" value="HTML Document" style="rounded=0;whiteSpace=wrap;html=1;strokeColor=default;align=center;verticalAlign=top;fontFamily=Helvetica;fontSize=12;fontColor=default;fillColor=default;" parent="33EV09qo5TnwpSvwFXFL-3" vertex="1">
          <mxGeometry x="25" y="150" width="195" height="60" as="geometry" />
        </mxCell>
        <mxCell id="33EV09qo5TnwpSvwFXFL-7" value="" style="endArrow=none;html=1;rounded=0;fontFamily=Helvetica;fontSize=12;fontColor=default;exitX=0.001;exitY=0.346;exitDx=0;exitDy=0;exitPerimeter=0;entryX=1.001;entryY=0.316;entryDx=0;entryDy=0;entryPerimeter=0;" parent="33EV09qo5TnwpSvwFXFL-3" source="33EV09qo5TnwpSvwFXFL-6" edge="1">
          <mxGeometry width="50" height="50" relative="1" as="geometry">
            <mxPoint x="25.194999999999936" y="172.76" as="sourcePoint" />
            <mxPoint x="220.19499999999994" y="170.96000000000004" as="targetPoint" />
          </mxGeometry>
        </mxCell>
        <mxCell id="33EV09qo5TnwpSvwFXFL-8" value="&amp;lt;script src=&quot;main.js&amp;gt;&amp;lt;/script&amp;gt;" style="text;html=1;strokeColor=none;fillColor=none;align=center;verticalAlign=middle;whiteSpace=wrap;rounded=0;fontSize=12;fontFamily=Helvetica;fontColor=default;" parent="33EV09qo5TnwpSvwFXFL-3" vertex="1">
          <mxGeometry x="40" y="180" width="170" height="30" as="geometry" />
        </mxCell>
        <mxCell id="PlugJkCY-pkuOAztnRj7-1" value="&lt;font style=&quot;font-size: 16px;&quot;&gt;Dependency&lt;/font&gt;" style="rounded=0;whiteSpace=wrap;html=1;fillColor=#dae8fc;strokeColor=#6c8ebf;container=0;movable=1;resizable=1;rotatable=1;deletable=1;editable=1;locked=0;connectable=1;" parent="1" vertex="1">
          <mxGeometry x="17" y="31" width="93" height="59" as="geometry" />
        </mxCell>
        <mxCell id="PlugJkCY-pkuOAztnRj7-2" value="&lt;font style=&quot;font-size: 16px;&quot;&gt;Dependency&lt;/font&gt;" style="rounded=0;whiteSpace=wrap;html=1;fillColor=#dae8fc;strokeColor=#6c8ebf;container=0;movable=1;resizable=1;rotatable=1;deletable=1;editable=1;locked=0;connectable=1;" parent="1" vertex="1">
          <mxGeometry x="17" y="121" width="93" height="59" as="geometry" />
        </mxCell>
        <mxCell id="PlugJkCY-pkuOAztnRj7-3" value="&lt;font style=&quot;font-size: 16px;&quot;&gt;Dependency&lt;/font&gt;" style="rounded=0;whiteSpace=wrap;html=1;fillColor=#dae8fc;strokeColor=#6c8ebf;container=0;movable=1;resizable=1;rotatable=1;deletable=1;editable=1;locked=0;connectable=1;" parent="1" vertex="1">
          <mxGeometry x="17" y="211" width="93" height="59" as="geometry" />
        </mxCell>
        <mxCell id="PlugJkCY-pkuOAztnRj7-4" value="&lt;font style=&quot;font-size: 16px;&quot;&gt;index.js&lt;/font&gt;" style="rounded=0;whiteSpace=wrap;html=1;fillColor=#dae8fc;strokeColor=#6c8ebf;container=0;movable=1;resizable=1;rotatable=1;deletable=1;editable=1;locked=0;connectable=1;" parent="1" vertex="1">
          <mxGeometry x="147" y="120" width="63" height="60" as="geometry" />
        </mxCell>
        <mxCell id="PlugJkCY-pkuOAztnRj7-5" value="&lt;b&gt;&lt;font style=&quot;font-size: 16px;&quot;&gt;Webpack&lt;/font&gt;&lt;/b&gt;" style="rounded=0;whiteSpace=wrap;html=1;fillColor=#ffe6cc;strokeColor=#d79b00;container=0;movable=1;resizable=1;rotatable=1;deletable=1;editable=1;locked=0;connectable=1;" parent="1" vertex="1">
          <mxGeometry x="250" y="94.75" width="100" height="110.5" as="geometry" />
        </mxCell>
        <mxCell id="PlugJkCY-pkuOAztnRj7-7" value="" style="endArrow=classic;html=1;rounded=0;exitX=1;exitY=0.5;exitDx=0;exitDy=0;movable=1;resizable=1;rotatable=1;deletable=1;editable=1;locked=0;connectable=1;" parent="1" source="PlugJkCY-pkuOAztnRj7-2" edge="1">
          <mxGeometry width="50" height="50" relative="1" as="geometry">
            <mxPoint x="287" y="101" as="sourcePoint" />
            <mxPoint x="150" y="150" as="targetPoint" />
          </mxGeometry>
        </mxCell>
        <mxCell id="PlugJkCY-pkuOAztnRj7-8" value="" style="endArrow=none;html=1;rounded=0;exitX=1;exitY=0.5;exitDx=0;exitDy=0;movable=1;resizable=1;rotatable=1;deletable=1;editable=1;locked=0;connectable=1;" parent="1" source="PlugJkCY-pkuOAztnRj7-1" target="PlugJkCY-pkuOAztnRj7-3" edge="1">
          <mxGeometry width="50" height="50" relative="1" as="geometry">
            <mxPoint x="287" y="101" as="sourcePoint" />
            <mxPoint x="157" y="241" as="targetPoint" />
            <Array as="points">
              <mxPoint x="130" y="60" />
              <mxPoint x="130" y="240" />
            </Array>
          </mxGeometry>
        </mxCell>
        <mxCell id="PlugJkCY-pkuOAztnRj7-9" value="" style="endArrow=classic;html=1;rounded=0;exitX=1;exitY=0.5;exitDx=0;exitDy=0;entryX=0;entryY=0.5;entryDx=0;entryDy=0;movable=1;resizable=1;rotatable=1;deletable=1;editable=1;locked=0;connectable=1;" parent="1" edge="1">
          <mxGeometry width="50" height="50" relative="1" as="geometry">
            <mxPoint x="210" y="150.21" as="sourcePoint" />
            <mxPoint x="250" y="150.5" as="targetPoint" />
            <Array as="points">
              <mxPoint x="210" y="151" />
            </Array>
          </mxGeometry>
        </mxCell>
        <mxCell id="PlugJkCY-pkuOAztnRj7-12" value="Combines many JS files&lt;br&gt;&amp;nbsp;into one single file" style="text;html=1;align=center;verticalAlign=middle;resizable=1;points=[];autosize=1;strokeColor=none;fillColor=none;container=0;movable=1;rotatable=1;deletable=1;editable=1;locked=0;connectable=1;" parent="1" vertex="1">
          <mxGeometry x="240" y="206" width="120" height="40" as="geometry" />
        </mxCell>
        <mxCell id="PlugJkCY-pkuOAztnRj7-25" value="Makes output easily&lt;br&gt;&amp;nbsp;available to the browser" style="text;html=1;align=center;verticalAlign=middle;resizable=1;points=[];autosize=1;strokeColor=none;fillColor=none;movable=1;rotatable=1;deletable=1;editable=1;locked=0;connectable=1;" parent="1" vertex="1">
          <mxGeometry x="378" y="260" width="150" height="40" as="geometry" />
        </mxCell>
        <mxCell id="PlugJkCY-pkuOAztnRj7-20" value="" style="rounded=0;whiteSpace=wrap;html=1;fillColor=#ffe6cc;strokeColor=#d79b00;movable=1;resizable=1;rotatable=1;deletable=1;editable=1;locked=0;connectable=1;" parent="1" vertex="1">
          <mxGeometry x="380" y="52" width="160" height="185" as="geometry" />
        </mxCell>
        <mxCell id="PlugJkCY-pkuOAztnRj7-22" value="" style="endArrow=none;html=1;rounded=0;entryX=0.994;entryY=0.309;entryDx=0;entryDy=0;entryPerimeter=0;exitX=0.013;exitY=0.311;exitDx=0;exitDy=0;exitPerimeter=0;movable=1;resizable=1;rotatable=1;deletable=1;editable=1;locked=0;connectable=1;" parent="1" source="PlugJkCY-pkuOAztnRj7-20" target="PlugJkCY-pkuOAztnRj7-20" edge="1">
          <mxGeometry width="50" height="50" relative="1" as="geometry">
            <mxPoint x="357" y="111" as="sourcePoint" />
            <mxPoint x="407" y="61" as="targetPoint" />
          </mxGeometry>
        </mxCell>
        <mxCell id="PlugJkCY-pkuOAztnRj7-23" value="&lt;font style=&quot;font-size: 16px;&quot;&gt;Webpack Dev Server&lt;/font&gt;" style="text;html=1;strokeColor=none;fillColor=none;align=center;verticalAlign=middle;whiteSpace=wrap;rounded=0;movable=1;resizable=1;rotatable=1;deletable=1;editable=1;locked=0;connectable=1;" parent="1" vertex="1">
          <mxGeometry x="397" y="40" width="140" height="34" as="geometry" />
        </mxCell>
        <mxCell id="PlugJkCY-pkuOAztnRj7-24" value="main.js" style="rounded=0;whiteSpace=wrap;html=1;fillColor=#dae8fc;strokeColor=#6c8ebf;movable=1;resizable=1;rotatable=1;deletable=1;editable=1;locked=0;connectable=1;" parent="1" vertex="1">
          <mxGeometry x="410" y="122" width="100" height="54" as="geometry" />
        </mxCell>
        <mxCell id="jf947JhWThxosUPHZOCs-3" value="" style="endArrow=classic;html=1;rounded=0;exitX=0.9;exitY=0.5;exitDx=0;exitDy=0;exitPerimeter=0;entryX=0;entryY=0.5;entryDx=0;entryDy=0;" edge="1" parent="1" source="PlugJkCY-pkuOAztnRj7-5" target="PlugJkCY-pkuOAztnRj7-24">
          <mxGeometry width="50" height="50" relative="1" as="geometry">
            <mxPoint x="430" y="290" as="sourcePoint" />
            <mxPoint x="480" y="240" as="targetPoint" />
          </mxGeometry>
        </mxCell>
        <mxCell id="jf947JhWThxosUPHZOCs-4" value="" style="endArrow=classic;html=1;rounded=0;entryX=0.8;entryY=0.519;entryDx=0;entryDy=0;entryPerimeter=0;" edge="1" parent="1" source="33EV09qo5TnwpSvwFXFL-8" target="PlugJkCY-pkuOAztnRj7-24">
          <mxGeometry width="50" height="50" relative="1" as="geometry">
            <mxPoint x="430" y="290" as="sourcePoint" />
            <mxPoint x="480" y="240" as="targetPoint" />
            <Array as="points">
              <mxPoint x="560" y="205" />
              <mxPoint x="560" y="150" />
            </Array>
          </mxGeometry>
        </mxCell>
      </root>
    </mxGraphModel>
  </diagram>
  <diagram id="Q_1R8eWs0g5068TItbjK" name="Page-3">
    <mxGraphModel dx="1434" dy="766" grid="1" gridSize="10" guides="1" tooltips="1" connect="1" arrows="1" fold="1" page="1" pageScale="1" pageWidth="850" pageHeight="1100" math="0" shadow="0">
      <root>
        <mxCell id="0" />
        <mxCell id="1" parent="0" />
      </root>
    </mxGraphModel>
  </diagram>
</mxfile>
